<?xml version="1.0" encoding="utf-8"?>
<!-- Generator: Adobe Illustrator 18.1.1, SVG Export Plug-In . SVG Version: 6.00 Build 0)  -->
<svg version="1.1" id="圖層_1" xmlns="http://www.w3.org/2000/svg" xmlns:xlink="http://www.w3.org/1999/xlink" x="0px" y="0px"
	 viewBox="0 0 80 79" enable-background="new 0 0 80 79" xml:space="preserve">
<path fill="#FB966E" d="M80,79H0V0h80V79z M7.2,28.1C7.1,28.4,7,28.6,7,29c-0.1,0.3-0.1,0.6-0.2,0.9c-0.1,0.3-0.1,0.6-0.1,0.9
	c0,0.3-0.1,0.6-0.1,0.8c0,0.4,0.1,0.9,0.2,1.3c0.2,0.4,0.4,0.7,0.8,0.9c0.4,0.3,0.8,0.5,1.1,0.7C9,34.7,9.2,34.9,9.5,35
	c0.3,0.1,0.5,0.3,0.9,0.3c0.3,0.1,0.8,0.1,1.3,0.1c0.5,0,1.1-0.1,1.8-0.3c0.7-0.2,1.4-0.4,2.2-0.6c0.8-0.3,1.6-0.5,2.4-0.8
	c0.8-0.3,1.5-0.5,2.2-0.8c0.1,0,0.4-0.1,0.7-0.2c0.3-0.1,0.7-0.3,1.2-0.4c0.4-0.2,0.9-0.3,1.4-0.5c0.5-0.2,1-0.3,1.4-0.5
	c0.5-0.2,0.9-0.3,1.3-0.5c0.4-0.1,0.7-0.3,1-0.3c0.2-0.1,0.4-0.1,0.7-0.3c0.3-0.1,0.6-0.2,0.9-0.4c0.3-0.2,0.6-0.3,0.9-0.6
	c0.3-0.2,0.5-0.5,0.7-0.7c0.1-0.2,0.1-0.3,0.2-0.6c0.1-0.2,0.1-0.5,0.1-0.8c0-0.2,0-0.4-0.1-0.5c0-0.2-0.1-0.3-0.2-0.5
	c-0.1-0.1-0.2-0.3-0.4-0.3c-0.2-0.1-0.4-0.1-0.6-0.1c-0.1,0-0.3,0-0.4,0.1c-0.2,0-0.3,0.1-0.6,0.2c-1.2,0.5-2.2,0.8-2.9,1.1
	s-1.2,0.5-1.7,0.6c-0.4,0.2-0.8,0.3-1,0.4c-0.3,0.1-0.6,0.2-1,0.4c-0.7,0.3-1.5,0.6-2.4,0.9c-0.9,0.3-1.8,0.6-2.7,0.9
	c-0.9,0.3-1.7,0.5-2.6,0.7s-1.6,0.3-2.2,0.3c-0.3,0-0.4-0.1-0.5-0.2c-0.1-0.1-0.1-0.3-0.1-0.5c0-0.4,0.1-0.9,0.2-1.6
	c0.2-0.7,0.3-1.3,0.5-2.1l0.4-1.4c0.4-1.4,0.8-2.7,1.3-4.2c0.5-1.4,1-2.8,1.5-4.2c0.5-1.4,1-2.8,1.5-4.2c0.5-1.4,0.9-2.7,1.2-4
	c0-0.2,0.1-0.4,0.1-0.6c0-0.2,0-0.4,0-0.7c0-0.3,0-0.6-0.1-1C18,6.5,17.9,6.2,17.8,6c-0.2-0.3-0.4-0.5-0.6-0.6
	c-0.3-0.2-0.6-0.2-0.9-0.2c-0.6,0-1.1,0.2-1.6,0.6c-0.5,0.4-0.8,0.9-1,1.6c0,0.7-0.2,1.6-0.5,2.8c-0.3,1.2-0.7,2.5-1.1,4
	c-0.5,1.5-1,3.2-1.6,4.9c-0.6,1.8-1.3,3.6-1.9,5.6L7.2,28.1z M30,57.7c0,0.1-0.1,0.2-0.1,0.2c0,0.1,0,0.1,0,0.2
	c0,0.3,0.1,0.6,0.2,0.9c0.1,0.3,0.3,0.6,0.5,0.9c0.2,0.3,0.5,0.5,0.9,0.7c0.3,0.2,0.7,0.3,1.2,0.3c0.2,0,0.4,0,0.6-0.1
	c0.2-0.1,0.3-0.2,0.4-0.4c0.1-0.1,0.2-0.3,0.3-0.4c0.1-0.1,0.1-0.3,0.2-0.4c0.8-3,1.6-5.9,2.4-8.9c0.8-2.9,1.6-5.9,2.4-8.8l0.7-2.6
	c0,0,0-0.1,0-0.2c0-0.1,0-0.1,0-0.2c0-0.2-0.1-0.5-0.2-0.7c-0.1-0.2-0.3-0.3-0.5-0.5c-0.2-0.1-0.5-0.2-0.7-0.3
	c-0.3-0.1-0.5-0.1-0.8-0.1c-0.4,0-0.7,0.1-1,0.2c-0.3,0.1-0.5,0.3-0.7,0.4c-0.2,0.2-0.3,0.3-0.4,0.5s-0.2,0.3-0.2,0.3
	c-0.4,1.4-0.7,2.8-1.1,4.3c-0.4,1.5-0.8,2.9-1.2,4.3c-0.4,1.4-0.8,2.8-1.1,4c-0.4,1.3-0.7,2.4-0.9,3.3L30,57.7z M37.2,29.6
	c0,0.1,0,0.3,0,0.5c0,0.1,0,0.2,0,0.4c0,0.1,0.1,0.3,0.3,0.6c0.3,0.4,0.6,0.7,0.8,0.8c0.2,0.1,0.5,0.2,0.9,0.2
	c0.3,0,0.7-0.1,1.1-0.2c0.4-0.1,0.8-0.3,1.2-0.5c0.4-0.2,0.7-0.5,1-0.7c0.3-0.3,0.5-0.6,0.6-1c0-0.1,0.1-0.3,0.1-0.5
	c0.1-0.2,0.1-0.5,0.1-0.7c0-0.4-0.1-0.7-0.2-0.9c-0.1-0.3-0.4-0.4-0.8-0.4c-0.2-0.2-0.3-0.4-0.5-0.5c-0.1-0.1-0.3-0.3-0.5-0.4
	c-0.2-0.1-0.4-0.2-0.5-0.2c-0.2,0-0.4,0.1-0.8,0.2s-0.7,0.3-1,0.4C38.4,27,38,27.5,37.7,28c-0.2,0.5-0.4,0.9-0.5,1.3
	C37.3,29.4,37.2,29.5,37.2,29.6z M44.1,69c0,0.6,0.2,1.1,0.6,1.5c0.4,0.4,0.8,0.8,1.4,1c0.6,0.3,1.2,0.5,1.9,0.6
	c0.7,0.1,1.3,0.2,1.9,0.2c0.2,0,0.6,0,1.2-0.1c0.6,0,1.2-0.1,1.8-0.2c0.6-0.1,1.2-0.1,1.8-0.2c0.6-0.1,1-0.1,1.2-0.1
	c2.2-0.3,4.1-0.6,5.7-0.9c1.6-0.3,2.9-0.5,4-0.7c1.1-0.2,2-0.3,2.6-0.5c0.6-0.1,1.1-0.2,1.5-0.3c0.2,0.1,0.4,0.1,0.6,0.1
	c0.3,0,0.6-0.1,0.8-0.2c0.3-0.1,0.5-0.3,0.8-0.6c0.2-0.2,0.4-0.5,0.6-0.8c0.2-0.3,0.3-0.6,0.4-0.9c-0.1-0.4-0.2-0.7-0.3-1
	c-0.1-0.3-0.2-0.6-0.4-0.8c-0.2-0.2-0.4-0.4-0.6-0.6c-0.3-0.1-0.6-0.2-1-0.2c-0.3,0-0.5,0-0.7,0.1c-0.2,0-0.4,0.1-0.6,0.2
	c-0.2,0.1-0.5,0.2-0.7,0.3c-0.3,0.1-0.6,0.2-1.1,0.3l-0.9,0.2c-0.5,0.1-1,0.2-1.5,0.4c-0.5,0.1-0.9,0.3-1.2,0.4l-7.8,1
	c-0.8,0.1-1.5,0.2-2.3,0.3c-0.8,0.1-1.4,0.2-2,0.2c-0.2,0-0.3,0-0.5,0c-0.2,0-0.3,0-0.4-0.1c0.3-0.3,0.8-0.8,1.4-1.4
	c0.6-0.6,1.3-1.2,2-2c0.7-0.7,1.5-1.5,2.3-2.2c0.8-0.8,1.6-1.5,2.3-2.2c0.7-0.7,1.4-1.3,2-1.8c0.6-0.5,1-0.9,1.3-1.2l0.3-0.2
	c0.3-0.2,0.6-0.6,1.1-1c0.4-0.4,0.9-0.8,1.5-1.3c0.5-0.5,1.1-0.9,1.7-1.4c0.6-0.5,1.1-0.9,1.6-1.3c0.5-0.4,1-0.7,1.4-1
	c0.4-0.3,0.7-0.4,0.9-0.4c0.4-0.4,0.6-0.7,0.8-1.1c0.2-0.4,0.3-0.7,0.3-1.2c0-0.1,0-0.2,0-0.3c0-0.1-0.1-0.2-0.2-0.4
	c-0.2-0.3-0.4-0.6-0.6-0.8c-0.2-0.2-0.4-0.4-0.6-0.5c-0.2-0.1-0.4-0.2-0.7-0.3c-0.3-0.1-0.6-0.1-1-0.1c-1,0-2.1,0.1-3.3,0.2
	c-1.2,0.1-2.5,0.3-3.7,0.4c-1.3,0.2-2.6,0.3-3.9,0.4c-1.3,0.1-2.5,0.2-3.6,0.2c-0.4,0-0.7,0-1.1,0c-0.3,0-0.7,0-1-0.1
	c-0.4,0.1-0.8,0.3-1.1,0.7c-0.3,0.4-0.4,0.8-0.4,1.3c0,0.5,0.1,0.8,0.2,1.2c0.2,0.3,0.4,0.6,0.7,0.8s0.6,0.4,0.9,0.4
	c0.4,0.1,0.7,0.1,1.1,0.1c0.3,0,0.9,0,1.6,0c0.7,0,1.4,0,2.2-0.1c0.8,0,1.6,0,2.4-0.1c0.8,0,1.5,0,2.1-0.1c-0.8,0.9-1.8,2-3,3.2
	c-1.2,1.2-2.4,2.3-3.7,3.5c-1.3,1.2-2.5,2.3-3.8,3.4c-1.2,1.1-2.3,2.1-3.2,2.9c-0.3,0.2-0.6,0.5-1,0.8c-0.4,0.3-0.8,0.7-1.2,1
	c-0.4,0.4-0.8,0.8-1.1,1.2c-0.3,0.4-0.5,0.8-0.7,1.2C44.2,68.6,44.1,68.8,44.1,69z"/>
</svg>
